<?xml version="1.0" encoding="UTF-8"?>
<!DOCTYPE svg PUBLIC "-//W3C//DTD SVG 1.1//EN" "http://www.w3.org/Graphics/SVG/1.1/DTD/svg11.dtd">
<!-- Creator: CorelDRAW X7 -->
<svg xmlns="http://www.w3.org/2000/svg" xml:space="preserve" width="178.5mm" height="178.5mm" version="1.1" style="shape-rendering:geometricPrecision; text-rendering:geometricPrecision; image-rendering:optimizeQuality; fill-rule:evenodd; clip-rule:evenodd"
viewBox="0 0 17850 17850"
 xmlns:xlink="http://www.w3.org/1999/xlink">
 <defs>
  <style type="text/css">
   <![CDATA[
    .str1 {stroke:black;stroke-width:1763.89;stroke-linecap:round;stroke-linejoin:round}
    .str0 {stroke:#EBECEC;stroke-width:1963.89;stroke-linecap:round;stroke-linejoin:round}
    .fil0 {fill:none}
   ]]>
  </style>
 </defs>
 <g id="Capa_x0020_1">
  <metadata id="CorelCorpID_0Corel-Layer"/>
  <path class="fil0 str0" d="M8043 12453l3528 -3528m0 0l-3528 -3528m3528 3528l-10583 0m1336 4410c1424,2127 3849,3528 6601,3528 4384,0 7938,-3554 7938,-7938 0,-4384 -3554,-7937 -7938,-7937 -2752,0 -5177,1400 -6601,3527"/>
  <path class="fil0 str1" d="M8043 12453l3528 -3528m0 0l-3528 -3528m3528 3528l-10583 0m1336 4410c1424,2127 3849,3528 6601,3528 4384,0 7938,-3554 7938,-7938 0,-4384 -3554,-7937 -7938,-7937 -2752,0 -5177,1400 -6601,3527"/>
 </g>
</svg>
