<?xml version="1.0"?>
<svg width="24" height="24" xmlns="http://www.w3.org/2000/svg" xmlns:svg="http://www.w3.org/2000/svg" data-name="Layer 1">
 <defs>
  <style>.cls-1{fill:none;stroke:#020202;stroke-miterlimit:10;stroke-width:1.92px;}</style>
 </defs>
 <g class="layer">
  <title>Layer 1</title>
  <rect class="cls-1" height="19.17" id="svg_1" width="19.17" x="2.42" y="2.42"/>
  <line class="cls-1" id="svg_2" x1="12" x2="12" y1="23.5" y2="18.71"/>
  <line class="cls-1" id="svg_3" x1="12" x2="12" y1="5.29" y2="0.5"/>
  <polyline class="cls-1" id="svg_4" points="16.79 16.69 16.79 16.79 16.79 23.5"/>
  <polyline class="cls-1" id="svg_5" points="16.79 7.31 16.79 7.21 16.79 0.5"/>
  <polyline class="cls-1" id="svg_6" points="7.21 16.69 7.21 16.79 7.21 23.5"/>
  <polyline class="cls-1" id="svg_7" points="7.21 7.31 7.21 7.21 7.21 0.5"/>
  <line class="cls-1" id="svg_8" x1="23.5" x2="18.71" y1="12" y2="12"/>
  <line class="cls-1" id="svg_9" x1="5.29" x2="0.5" y1="12" y2="12"/>
  <polyline class="cls-1" id="svg_10" points="23.5 7.21 16.79 7.21 16.69 7.21"/>
  <polyline class="cls-1" id="svg_11" points="7.31 7.21 7.21 7.21 0.5 7.21"/>
  <polyline class="cls-1" id="svg_12" points="23.5 16.79 16.79 16.79 16.69 16.79"/>
  <polyline class="cls-1" id="svg_13" points="7.31 16.79 7.21 16.79 0.5 16.79"/>
  <path class="cls-1" d="m18.71,12a6.66,6.66 0 0 1 -1.92,4.69l-0.1,0.1a6.69,6.69 0 0 1 -9.38,0l-0.1,-0.1a6.69,6.69 0 0 1 0,-9.38l0.1,-0.1a6.69,6.69 0 0 1 9.38,0l0.1,0.1a6.66,6.66 0 0 1 1.92,4.69z" id="svg_14"/>
  <text fill="#000000" font-family="Courier" font-size="24" font-weight="bold" id="svg_19" stroke="#000000" stroke-width="0" text-anchor="middle" transform="matrix(0.421804, 0, 0, 0.395828, -50.0079, -42.1761)" x="147.1" xml:space="preserve" y="143.48">R</text>
 </g>
</svg>