<?xml version="1.0" encoding="UTF-8"?>
<!DOCTYPE svg PUBLIC "-//W3C//DTD SVG 1.1//EN" "http://www.w3.org/Graphics/SVG/1.1/DTD/svg11.dtd">
<!-- Creator: CorelDRAW X7 -->
<svg xmlns="http://www.w3.org/2000/svg" xml:space="preserve" width="210mm" height="297mm" version="1.1" style="shape-rendering:geometricPrecision; text-rendering:geometricPrecision; image-rendering:optimizeQuality; fill-rule:evenodd; clip-rule:evenodd"
viewBox="0 0 21000 29700"
 xmlns:xlink="http://www.w3.org/1999/xlink">
 <defs>
  <style type="text/css">
   <![CDATA[
    .str0 {stroke:#EBECEC;stroke-width:200}
    .fil1 {fill:none}
    .fil0 {fill:black}
   ]]>
  </style>
 </defs>
 <g id="Capa_x0020_1">
  <metadata id="CorelCorpID_0Corel-Layer"/>
  <path class="fil0" d="M19986 13232l-2530 -413c-148,-508 -350,-996 -604,-1458l1477 -2105c119,-170 99,-401 -48,-548l-1665 -1664c-149,-149 -382,-168 -553,-45l-2073 1490c-466,-258 -958,-462 -1469,-611l-441 -2519c-36,-205 -213,-354 -422,-354l-2354 0c-210,0 -389,152 -423,359l-409 2505c-514,148 -1007,351 -1471,604l-2068 -1476c-170,-122 -403,-103 -551,45l-1664 1665c-147,146 -167,378 -48,548l1455 2081c-259,469 -465,965 -616,1481l-2496 416c-206,34 -358,213 -358,422l0 2354c0,208 149,386 354,422l2496 442c149,516 356,1012 615,1481l-1472 2061c-122,169 -102,403 45,551l1665 1666c146,146 378,167 548,48l2085 -1461c467,258 962,462 1475,610l417 2509c33,206 212,357 421,357l2354 0c208,0 386,-149 422,-353l447 -2521c513,-152 1005,-357 1468,-615l2100 1473c170,120 401,99 549,-47l1664 -1666c148,-148 167,-383 44,-553l-1497 -2079c254,-462 455,-951 602,-1459l2534 -445c205,-35 354,-213 354,-421l0 -2355c0,-209 -152,-388 -359,-422zm-9486 4615c-1655,0 -2997,-1342 -2997,-2997 0,-1655 1342,-2997 2997,-2997 1655,0 2997,1342 2997,2997 0,1655 -1342,2997 -2997,2997z"/>
  <path class="fil1 str0" d="M19986 13232l-2530 -413c-148,-508 -350,-996 -604,-1458l1477 -2105c119,-170 99,-401 -48,-548l-1665 -1664c-149,-149 -382,-168 -553,-45l-2073 1490c-466,-258 -958,-462 -1469,-611l-441 -2519c-36,-205 -213,-354 -422,-354l-2354 0c-210,0 -389,152 -423,359l-409 2505c-514,148 -1007,351 -1471,604l-2068 -1476c-170,-122 -403,-103 -551,45l-1664 1665c-147,146 -167,378 -48,548l1455 2081c-259,469 -465,965 -616,1481l-2496 416c-206,34 -358,213 -358,422l0 2354c0,208 149,386 354,422l2496 442c149,516 356,1012 615,1481l-1472 2061c-122,169 -102,403 45,551l1665 1666c146,146 378,167 548,48l2085 -1461c467,258 962,462 1475,610l417 2509c33,206 212,357 421,357l2354 0c208,0 386,-149 422,-353l447 -2521c513,-152 1005,-357 1468,-615l2100 1473c170,120 401,99 549,-47l1664 -1666c148,-148 167,-383 44,-553l-1497 -2079c254,-462 455,-951 602,-1459l2534 -445c205,-35 354,-213 354,-421l0 -2355c0,-209 -152,-388 -359,-422zm-9486 4615c-1655,0 -2997,-1342 -2997,-2997 0,-1655 1342,-2997 2997,-2997 1655,0 2997,1342 2997,2997 0,1655 -1342,2997 -2997,2997z"/>
 </g>
</svg>
