<?xml version="1.0"?>
<svg width="2135" height="2135" xmlns="http://www.w3.org/2000/svg" xmlns:svg="http://www.w3.org/2000/svg" clip-rule="evenodd" fill-rule="evenodd" version="1.1" xml:space="preserve">
 <defs>
  <style type="text/css">
   <![CDATA[
    .str0 {stroke:#9A0C0C;stroke-width:50}
    .str1 {stroke:#9A0C0C;stroke-width:30}
    .fil2 {fill:none}
    .fil0 {fill:#9A0C0C}
    .fil1 {fill:#9A0C0C}
   ]]>
  </style>
 </defs>
 <g class="layer">
  <title>Layer 1</title>
  <g id="Capa_x0020_1">
   <metadata id="CorelCorpID_0Corel-Layer"/>
   <g id="svg_1">
    <path class="fil1" d="m673.75,1531.75c19,37 27,65 17,106c-2,9 4,18 13,21c1,0 3,0 4,0c8,0 15,-5 17,-13c11,-49 3,-86 -21,-130c-4,-9 -15,-12 -23,-7c-9,4 -12,15 -7,23z" data-fill-palette-color="accent" id="svg_2"/>
    <path class="fil0" d="m2128.75,1744.75l-524,-524c-9,-8 -22,-8 -31,0l-155,155l-88,-88l54,-54c8,-8 8,-22 0,-30l-17,-18l197,-198l27,27c4,4 10,6 15,6c6,0 11,-2 16,-6l97,-98c5,-4 7,-9 7,-15c0,-6 -2,-11 -7,-15l-12,-13c11,-11 17,-25 17,-41c0,-13 -5,-25 -13,-36c27,-35 24,-86 -8,-119c-33,-32 -84,-35 -120,-8c-9,-6 -21,-10 -33,-10c-15,0 -30,6 -41,17l-50,-50c21,-21 22,-54 4,-77c27,-36 24,-87 -8,-119c-33,-33 -84,-35 -119,-8c-23,-16 -54,-14 -74,6l-28,-27c-8,-8 -22,-8 -30,0l-98,98c-8,8 -8,22 0,30l28,29l-197,197l-14,-13c-8,-8 -22,-8 -30,0l-54,54l-81,-81l155,-155c8,-8 8,-22 0,-31l-524,-523c-8,-9 -23,-9 -31,0l-352,352c-9,9 -9,22 0,31l523,524c5,4 10,6 16,6c5,0 11,-2 15,-6l167,-168l81,81l-50,50c-8,9 -8,23 0,31l13,12l-181,181c-8,8 -8,22 0,30l185,185l-78,77c-1,1 -1,3 -2,4c-53,-47 -121,-72 -192,-72c-53,0 -105,14 -150,40c-6,4 -10,10 -11,16c-1,7 2,14 6,18l156,156l-88,123c-5,9 -4,20 3,28c4,4 10,6 15,6c5,0 9,-1 13,-4l121,-89l154,154c4,4 10,6 15,6c1,0 2,0 3,0c7,-1 12,-5 16,-10c65,-110 51,-248 -31,-343c1,-1 2,-1 3,-2l77,-78l185,185c4,4 9,6 15,6c6,0 11,-2 15,-6l181,-180l18,18c4,4 10,6 15,6c6,0 11,-2 15,-6l50,-50l89,88l-168,167c-4,4 -6,10 -6,15c0,6 2,12 6,16l524,524c4,4 10,6 15,6c6,0 12,-2 16,-6l352,-353c4,-4 7,-10 7,-15c0,-6 -2,-12 -6,-16zm-1583,-877l-494,-494l322,-322l494,494l-322,322zm-77,787l60,-62l0,0l-60,62zm264,66l-332,-331c32,-15 67,-22 103,-22c67,0 130,26 177,73c74,74 94,186 52,280zm940,-1012c9,9 14,21 14,34c0,8 -2,16 -6,23l-65,-65c19,-9 42,-7 57,8zm-122,-6c4,0 8,2 11,5l115,115c3,3 5,6 5,10c0,4 -2,8 -5,11l-136,-137c3,-2 6,-4 10,-4zm-126,-242c16,16 18,39 9,57l-65,-65c18,-10 41,-7 56,8zm-111,-1l116,115c5,6 5,15 0,21l-137,-136c6,-6 16,-6 21,0zm-94,-13l455,455l-68,67l-454,-454l67,-68zm-54,142l369,369l0,0c-118,-118 -244,-245 -369,-369l0,0zm0,0c126,126 248,248 369,369l-89,89l-369,-369l89,-89zm-120,120l369,368l-78,79l-42,-42c-4,-4 -9,-6 -15,-6c-6,0 -11,2 -15,6l-54,54l-251,-251l54,-54c4,-4 6,-9 6,-15c0,-6 -2,-11 -6,-15l-46,-46l78,-78zm-137,80l59,59l-104,104l-59,-59l104,-104zm97,696l-369,-369l62,-62c125,124 245,245 369,369l-62,62zm93,-93c-124,-124 -245,-244 -369,-369l72,-72l47,47c4,4 10,6 15,6c6,0 11,-2 15,-6l50,-50l251,250l-50,50c-4,5 -6,10 -6,16c0,5 2,11 6,15l41,41l-72,72zm136,-69l-59,-59l104,-104l59,59l-104,104zm526,760l-494,-494l322,-322l494,494l-322,322z" data-fill-palette-color="accent" id="svg_3"/>
    <line class="fil2 str1" id="svg_4" x1="1492.75" x2="1869.75" y1="1483.75" y2="1860.75"/>
    <line class="fil2 str1" id="svg_5" x1="257.75" x2="472.75" y1="476.75" y2="262.75"/>
    <line class="fil2 str1" id="svg_6" x1="412.75" x2="537.75" y1="542.75" y2="417.75"/>
    <line class="fil2 str1" id="svg_7" x1="477.75" x2="692.75" y1="696.75" y2="482.75"/>
    <line class="fil2 str1" id="svg_8" x1="1477.75" x2="1692.75" y1="1676.75" y2="1462.75"/>
    <line class="fil2 str1" id="svg_9" x1="1632.75" x2="1757.75" y1="1742.75" y2="1617.75"/>
    <line class="fil2 str1" id="svg_10" x1="1697.75" x2="1912.75" y1="1896.75" y2="1682.75"/>
    <line class="fil2 str1" id="svg_11" x1="277.75" x2="654.75" y1="268.75" y2="645.75"/>
   </g>
  </g>
 </g>
</svg>