<?xml version="1.0" encoding="UTF-8"?>
<!DOCTYPE svg PUBLIC "-//W3C//DTD SVG 1.1//EN" "http://www.w3.org/Graphics/SVG/1.1/DTD/svg11.dtd">
<!-- Creator: CorelDRAW X7 -->
<svg xmlns="http://www.w3.org/2000/svg" xml:space="preserve" width="174.58mm" height="174.58mm" version="1.1" style="shape-rendering:geometricPrecision; text-rendering:geometricPrecision; image-rendering:optimizeQuality; fill-rule:evenodd; clip-rule:evenodd"
viewBox="0 0 17458 17458"
 xmlns:xlink="http://www.w3.org/1999/xlink">
 <defs>
  <style type="text/css">
   <![CDATA[
    .str2 {stroke:#EBECEC;stroke-width:200}
    .str1 {stroke:black;stroke-width:400}
    .str0 {stroke:#EBECEC;stroke-width:600}
    .fil0 {fill:none}
    .fil1 {fill:black}
   ]]>
  </style>
 </defs>
 <g id="Capa_x0020_1">
  <metadata id="CorelCorpID_0Corel-Layer"/>
  <circle class="fil0 str0" cx="8729" cy="8729" r="8429"/>
  <circle class="fil0 str1" cx="8729" cy="8729" r="8429"/>
  <g id="_1659836135360">
   <path class="fil1" d="M14089 12719c-262,-239 -597,-819 -1004,-1739l-4276 -9721 -166 0 -4239 9458c-402,904 -741,1499 -1014,1787 -274,289 -624,465 -1050,529l0 324 3942 0 0 -324c-617,-47 -1004,-116 -1162,-209 -269,-157 -403,-402 -403,-734 0,-251 82,-569 246,-954l498 -1153 4187 0 629 1477c162,383 251,603 262,655 35,111 52,219 52,324 0,174 -63,309 -191,402 -188,128 -511,191 -970,191l-236 0 0 324 5733 0 0 -324c-360,-28 -640,-133 -838,-313zm-8321 -3383l1818 -4082 1766 4082 -3584 0z"/>
  </g>
  <g id="_1659836135616">
   <path class="fil0 str2" d="M14089 12719c-262,-239 -597,-819 -1004,-1739l-4276 -9721 -166 0 -4239 9458c-402,904 -741,1499 -1014,1787 -274,289 -624,465 -1050,529l0 324 3942 0 0 -324c-617,-47 -1004,-116 -1162,-209 -269,-157 -403,-402 -403,-734 0,-251 82,-569 246,-954l498 -1153 4187 0 629 1477c162,383 251,603 262,655 35,111 52,219 52,324 0,174 -63,309 -191,402 -188,128 -511,191 -970,191l-236 0 0 324 5733 0 0 -324c-360,-28 -640,-133 -838,-313zm-8321 -3383l1818 -4082 1766 4082 -3584 0z"/>
  </g>
 </g>
</svg>
